<?xml version="1.0" standalone="no"?>
<!DOCTYPE svg PUBLIC "-//W3C//DTD SVG 1.1//EN" "http://www.w3.org/Graphics/SVG/1.1/DTD/svg11.dtd" >
<svg xmlns="http://www.w3.org/2000/svg">
<metadata></metadata>
<defs>
<font id="corporate_s_w01_boldregular" horiz-adv-x="1024" >
<font-face units-per-em="2048" ascent="1638" descent="-410" />
<missing-glyph horiz-adv-x="512" />
<glyph horiz-adv-x="0" />
<glyph unicode="&#xd;" horiz-adv-x="0" />
<glyph unicode=" "  horiz-adv-x="512" />
<glyph unicode="&#x09;" horiz-adv-x="512" />
<glyph unicode="&#xa0;" horiz-adv-x="512" />
<glyph unicode="!" horiz-adv-x="516" d="M100 141q0 66 46 112t112 46t111 -46t45 -112t-46 -110.5t-112 -44.5t-111 45t-45 110zM123 1331h270l-28 -878h-218z" />
<glyph unicode="&#x22;" d="M219 1366h246l-47 -549h-152zM557 1366h246l-47 -549h-152z" />
<glyph unicode="#" horiz-adv-x="1228" d="M12 408l27 170h235l37 237h-233l26 170h234l61 381h197l-59 -381h247l60 381h200l-61 -381h240l-27 -170h-240l-36 -237h239l-26 -170h-242l-64 -408h-198l65 408h-250l-63 -408h-199l64 408h-234zM471 578h248l39 237h-248z" />
<glyph unicode="$" horiz-adv-x="1167" d="M72 428v27h245q4 -117 52.5 -177.5t152.5 -82.5v399q-55 18 -93 31.5t-66.5 23.5t-49 20.5t-39.5 20.5q-170 96 -170 305q0 170 110 273.5t308 122.5v153h125v-158q92 -10 168 -44.5t128 -90t80 -126t26 -152.5h-242q-8 80 -47 126t-113 66v-346q51 -16 89 -29.5 t66.5 -23.5t50 -20.5t44.5 -22.5q201 -115 201 -332q0 -88 -32 -160.5t-90 -127t-142 -87t-187 -41.5v-182h-125v182q-92 10 -160.5 33t-121.5 62q-82 59 -125 151t-43 207zM354 1016q0 -59 36 -93t132 -63v307q-168 -33 -168 -151zM647 190q92 10 143.5 56.5t51.5 120.5 q0 88 -74 135q-16 12 -41 22.5t-80 28.5v-363z" />
<glyph unicode="%" horiz-adv-x="1460" d="M66 1047q0 70 22.5 129t61 104t91 70.5t113.5 25.5t113.5 -25.5t91.5 -70.5t61.5 -104.5t22.5 -128.5q0 -70 -22.5 -130.5t-61.5 -104.5t-92 -69.5t-115 -25.5q-59 0 -111.5 25.5t-91 70.5t-61 105.5t-22.5 128.5zM225 1047q0 -86 35 -138.5t94 -52.5t94 52.5t35 138.5 t-35 138t-92 52q-59 0 -95 -52t-36 -138zM231 0l793 1366h201l-793 -1366h-201zM817 319q0 70 22.5 129.5t61.5 104.5t91.5 70.5t111.5 25.5q61 0 113.5 -25.5t91.5 -70.5t61.5 -104.5t22.5 -129.5t-22.5 -130t-61.5 -104t-92.5 -69.5t-114.5 -25.5q-59 0 -111.5 25.5 t-90.5 70.5t-60.5 105.5t-22.5 127.5zM977 319q0 -86 35 -138t94 -52q57 0 92 52t35 138t-35 138.5t-92 52.5q-59 0 -94 -52t-35 -139z" />
<glyph unicode="&#x26;" horiz-adv-x="1187" d="M55 373q0 86 33 156.5t111 144.5q23 20 42 38.5t60 55.5q-43 57 -70.5 96t-43 71t-20.5 59.5t-5 62.5q0 63 24.5 115.5t69.5 90t105.5 59t134.5 21.5q70 0 129 -20t100 -59t64.5 -92.5t23.5 -116.5q0 -47 -10 -86t-32.5 -77t-61.5 -78t-97 -89l226 -307q12 23 19 42 t11 40.5t6.5 47t2.5 60.5v29.5t-3 44.5h199v-72q0 -125 -24.5 -212t-83.5 -165l176 -233h-260l-58 90q-68 -59 -141.5 -86t-177.5 -27q-98 0 -181 30t-142.5 82t-92.5 125t-33 159zM285 358q0 -82 60.5 -130t162.5 -48q115 0 188 68l-258 340q-86 -74 -119.5 -125 t-33.5 -105zM389 1059q0 -20 4 -37.5t14.5 -39t28.5 -47.5t47 -63q66 55 95.5 99.5t29.5 91.5q0 43 -29.5 69.5t-78.5 26.5q-47 0 -79 -28.5t-32 -71.5z" />
<glyph unicode="'" horiz-adv-x="512" d="M133 1366h246l-47 -549h-152z" />
<glyph unicode="(" horiz-adv-x="626" d="M121 483q0 268 62.5 495.5t185.5 397.5h190q-104 -158 -159.5 -383t-55.5 -499q0 -285 54.5 -513.5t160.5 -390.5h-190q-123 170 -185.5 395.5t-62.5 497.5z" />
<glyph unicode=")" horiz-adv-x="626" d="M66 -410q106 162 160.5 385.5t54.5 497.5q0 287 -54.5 515.5t-160.5 387.5h190q123 -168 185.5 -394t62.5 -497q0 -270 -62.5 -495.5t-185.5 -399.5h-190z" />
<glyph unicode="*" d="M193 1059l32 104l232 -73v241h110v-241l232 73l32 -104l-229 -76l141 -197l-88 -65l-143 197l-141 -197l-90 65l141 197z" />
<glyph unicode="+" horiz-adv-x="1167" d="M98 586v192h387v402h199v-402h387v-192h-387v-402h-199v402h-387z" />
<glyph unicode="," horiz-adv-x="514" d="M47 -465q39 53 72 113.5t56.5 123t37.5 122t14 112.5q-150 18 -149 139q0 66 47 110t113 44q78 0 123 -59.5t45 -159.5q0 -59 -12.5 -119.5t-40 -125t-70.5 -138.5t-105 -162h-131z" />
<glyph unicode="-" horiz-adv-x="534" d="M0 426v182h535v-182h-535z" />
<glyph unicode="." horiz-adv-x="514" d="M100 141q0 66 46 112t112 46t111 -46t45 -112t-46 -110.5t-112 -44.5t-111 45t-45 110z" />
<glyph unicode="/" horiz-adv-x="1140" d="M43 -397l864 1763h191l-865 -1763h-190z" />
<glyph unicode="0" horiz-adv-x="1167" d="M98 682q0 158 34 285t96.5 215t152.5 135t205 47q113 0 203 -47t153.5 -136t96 -218t32.5 -291t-32.5 -291t-96 -218t-154 -136t-202.5 -47q-117 0 -207 47t-152.5 137t-95.5 221t-33 297zM354 678q0 -236 59.5 -362t172.5 -126q92 0 143 80q41 68 63.5 170.5t22.5 231.5 t-22.5 232.5t-63.5 166.5q-51 82 -143 82q-94 0 -146 -82q-41 -66 -63.5 -168t-22.5 -225z" />
<glyph unicode="1" horiz-adv-x="1167" d="M338 956v140q137 4 214 61t101 180h174v-1337h-256v956h-233z" />
<glyph unicode="2" horiz-adv-x="1167" d="M152 0v205l405 467q53 63 90 111t59.5 87t32 70t9.5 59q0 61 -46.5 101.5t-117.5 40.5q-84 0 -135.5 -48.5t-61.5 -136.5h-213q0 94 28.5 169t84 128.5t133.5 82t176 28.5q188 0 300 -97.5t112 -260.5q0 -47 -9.5 -87t-32 -86.5t-61.5 -101.5t-98 -129q-35 -43 -76 -91 t-84 -97t-86 -95.5t-80 -85.5h535v-233h-864z" />
<glyph unicode="3" horiz-adv-x="1167" d="M104 399h230q2 -96 60.5 -148t164.5 -52q98 0 153.5 52t55.5 144q0 72 -42 119t-116 61q-78 12 -211 13v207q16 -2 29.5 -2h20.5q133 0 202 34q43 23 68.5 66t25.5 94q0 70 -47 114t-123 44q-164 0 -188 -168h-217q6 184 119.5 285.5t314.5 101.5q182 0 289.5 -96.5 t107.5 -259.5q0 -111 -52 -183.5t-165 -115.5q236 -66 236 -314q0 -92 -33 -168.5t-93 -131t-144 -85t-185 -30.5q-217 0 -339 110.5t-122 308.5z" />
<glyph unicode="4" horiz-adv-x="1167" d="M57 276v203l510 858h293v-858h240v-203h-234v-292h-258v292h-551zM295 479h328v580z" />
<glyph unicode="5" horiz-adv-x="1167" d="M125 379h240q29 -176 196 -176q96 0 153.5 68.5t57.5 185.5q0 111 -53 176t-144 65q-59 0 -108 -25.5t-98 -82.5l-217 33l133 708h669l-14 -227h-471l-53 -258q53 31 99 44t108 13q92 0 168.5 -31.5t132 -89t86 -138.5t30.5 -177q0 -106 -34.5 -196.5t-97 -155 t-148.5 -100t-189 -35.5q-197 0 -315.5 106.5t-130.5 292.5z" />
<glyph unicode="6" horiz-adv-x="1167" d="M119 475q0 121 42 242t130 256q29 43 51.5 74.5t54 70.5t78.5 92.5t125 141.5h277q-72 -88 -122 -151.5t-87 -114t-65 -90.5t-54 -83q31 4 49 5.5t39 1.5q92 0 169 -33t131 -91.5t84 -142.5t30 -184q0 -106 -34 -196.5t-94.5 -155t-144.5 -101t-184 -36.5 q-104 0 -192.5 36.5t-151 102t-97 157t-34.5 199.5zM375 461q0 -117 57 -190.5t150 -73.5q98 0 155.5 71.5t57.5 192.5q0 117 -58.5 189.5t-152.5 72.5t-151.5 -72.5t-57.5 -189.5z" />
<glyph unicode="7" horiz-adv-x="1167" d="M182 0l604 1087h-598v244h906v-194l-631 -1137h-281z" />
<glyph unicode="8" horiz-adv-x="1167" d="M117 401q0 199 176 301q-150 92 -150 269q0 84 34 156.5t93.5 125t140.5 82t175 29.5t175 -29.5t139 -82t92 -125t34 -156.5q0 -176 -149 -269q176 -100 176 -301q0 -90 -35 -167.5t-97.5 -134t-148.5 -88t-186 -31.5q-102 0 -187.5 31.5t-149 88t-98 133t-34.5 168.5z M373 389q0 -92 59.5 -148.5t151.5 -56.5q94 0 153.5 56.5t59.5 148.5t-59.5 149.5t-151.5 57.5q-96 0 -154.5 -57.5t-58.5 -149.5zM399 979q0 -78 51.5 -128t135.5 -50t135 50t51 128q0 80 -51 130t-133 50q-86 0 -137.5 -49t-51.5 -131z" />
<glyph unicode="9" horiz-adv-x="1167" d="M119 866q0 109 34.5 200t96 157.5t146.5 103.5t188 37q102 0 188 -37t147.5 -103.5t96.5 -157.5t35 -202q0 -123 -42 -245.5t-132 -258.5q-29 -43 -53.5 -76.5t-56.5 -73.5t-79 -93.5t-123 -136.5h-276q68 84 118 147t87.5 115.5t67.5 95.5t56 86q-47 -8 -88 -8 q-90 0 -165.5 32.5t-130 92t-85 142.5t-30.5 183zM375 879q0 -121 57 -194t154 -73q94 0 151.5 73t57.5 194t-57.5 194.5t-149.5 73.5q-98 0 -155.5 -73t-57.5 -195z" />
<glyph unicode=":" horiz-adv-x="514" d="M100 141q0 66 46 112t112 46t111 -46t45 -112t-46 -110.5t-112 -44.5t-111 45t-45 110zM100 819q0 66 46 112t112 46t111 -46t45 -110q0 -66 -46 -111.5t-112 -45.5t-111 45t-45 110z" />
<glyph unicode=";" horiz-adv-x="514" d="M47 -465q39 53 72 113.5t56.5 123t37.5 122t14 112.5q-150 18 -149 139q0 66 47 110t113 44q78 0 123 -59.5t45 -159.5q0 -59 -12.5 -119.5t-40 -125t-70.5 -138.5t-105 -162h-131zM84 819q0 66 46 112t112 46t110.5 -46t44.5 -110q0 -66 -45 -111.5t-110 -45.5 q-66 0 -112 45t-46 110z" />
<glyph unicode="&#x3c;" d="M68 590v213l886 448v-252l-620 -303l620 -305v-250z" />
<glyph unicode="=" horiz-adv-x="1167" d="M98 416v192h973v-192h-973zM98 758v192h973v-192h-973z" />
<glyph unicode="&#x3e;" d="M68 141v250l620 305l-620 305v248l886 -448v-213z" />
<glyph unicode="?" horiz-adv-x="854" d="M104 973q4 100 20.5 158.5t55.5 105.5q104 121 301 121q164 0 256 -82t92 -229q0 -43 -6 -76t-24.5 -67t-50 -73.5t-82.5 -97.5q-39 -43 -61.5 -70.5t-34 -52t-14.5 -51.5t-3 -67v-48h-234q0 88 3.5 140.5t16.5 91.5t40 73.5t74 88.5q37 39 58 65.5t33.5 46t16.5 37 t4 39.5q0 51 -32.5 82t-86.5 31q-66 0 -102.5 -43t-40.5 -123h-199zM283 141q0 66 45.5 112t111.5 46t111 -46t45 -112t-45 -110.5t-111 -44.5t-111.5 45t-45.5 110z" />
<glyph unicode="@" horiz-adv-x="1501" d="M63 670q0 154 54.5 287t152 229t229.5 151.5t285 55.5q141 0 262 -45t208 -127t136.5 -194t49.5 -243q0 -96 -28 -185t-75 -156.5t-108.5 -108.5t-128.5 -41q-117 0 -158 131q-49 -68 -107.5 -99.5t-136.5 -31.5q-68 0 -123 24.5t-95 67.5t-62.5 103.5t-22.5 132.5 q0 82 29 156.5t78 132t114.5 90t139.5 32.5q137 0 202 -106l17 84h176l-78 -398q-10 -49 -12 -64.5t-2 -29.5q0 -82 51 -82q33 0 64.5 31t56 80t40 111.5t15.5 125.5q0 102 -36 186.5t-101.5 144t-157.5 92t-203 32.5q-240 0 -393 -160q-80 -82 -121 -186.5t-41 -224.5 q0 -117 40 -218.5t112 -177.5q78 -76 180.5 -110.5t249.5 -34.5q96 0 179 15.5t184 50.5l39 -156q-184 -63 -406 -64q-334 0 -532 183q-104 96 -160 230t-56 284zM594 621q0 -76 39 -119t104 -43q76 0 126 67.5t50 169.5q0 76 -34 118t-95 42q-39 0 -73.5 -18.5t-60 -51 t-41 -74.5t-15.5 -91z" />
<glyph unicode="A" horiz-adv-x="1232" d="M20 0l461 1366h267l464 -1366h-272l-84 285h-481l-86 -285h-269zM440 508h351l-177 557z" />
<glyph unicode="B" horiz-adv-x="1204" d="M164 0v1366h366q123 0 194 -7t126 -28q100 -35 156.5 -115.5t56.5 -193.5q0 -115 -53.5 -183.5t-171.5 -105.5q299 -68 299 -340q0 -127 -69 -224t-185 -134q-35 -10 -68 -17.5t-76 -11.5t-103.5 -5t-148.5 -1h-323zM422 213h119q53 0 91 1t64.5 4t46 8t35.5 14 q43 18 66.5 63t23.5 107q0 63 -26.5 108t-75.5 66q-37 14 -82 19t-137 5h-125v-395zM422 815h113q72 0 113.5 5t72.5 18q41 16 63.5 55t22.5 92q0 49 -21.5 88t-60.5 55q-31 14 -76 19.5t-129 5.5h-98v-338z" />
<glyph unicode="C" horiz-adv-x="1226" d="M129 1009.5q55 143.5 162 241.5q160 141 385 142q219 0 343 -121t138 -350h-227q-18 119 -84 181t-170 62q-154 0 -242 -130t-88 -355t89 -353t243 -128q238 0 262 307h234q-25 -532 -486 -533q-123 0 -227.5 40t-186.5 116q-200 189 -200 545q0 192 55 335.5z" />
<glyph unicode="D" horiz-adv-x="1323" d="M164 0v1366h334q154 0 253 -16.5t173 -53.5q154 -78 239.5 -239.5t85.5 -372.5q0 -201 -78.5 -361.5t-214.5 -238.5q-45 -25 -88 -41t-98 -25.5t-131 -13.5t-182 -4h-293zM426 223h121q57 0 99 3t76 10.5t60.5 19.5t51.5 31q70 51 108.5 157.5t38.5 241.5t-40 236.5 t-116 154.5q-29 20 -56.5 33.5t-65 21t-90 9.5t-130.5 2h-57v-920z" />
<glyph unicode="E" horiz-adv-x="1099" d="M164 0v1366h858v-223h-596v-324h543v-223h-543v-373h618v-223h-880z" />
<glyph unicode="F" horiz-adv-x="1060" d="M164 0v1366h858v-223h-596v-324h543v-223h-543v-596h-262z" />
<glyph unicode="G" horiz-adv-x="1312" d="M74 682q0 160 43 291t122.5 224t192.5 144.5t252 51.5q127 0 232.5 -45t170.5 -131q47 -59 70 -126t27 -165h-226q-35 239 -268 239h-2q-162 0 -252 -128t-90 -357t92 -354t264 -125q72 0 149 24.5t136 65.5v219h-272v195h489v-568q-233 -164 -499 -164q-145 0 -262 49.5 t-199 141.5t-126 223t-44 295z" />
<glyph unicode="H" horiz-adv-x="1394" d="M164 0v1366h262v-545h543v545h262v-1366h-262v604h-543v-604h-262z" />
<glyph unicode="I" horiz-adv-x="589" d="M164 0v1366h262v-1366h-262z" />
<glyph unicode="J" horiz-adv-x="686" d="M-8 -53h31h14q88 2 137 16t70 45q8 12 12 25.5t6 41t3 75t1 122.5v1094h262v-1087q0 -94 -2 -157t-7 -105t-15 -70.5t-25 -57.5q-47 -86 -145 -124.5t-264 -38.5h-33t-45 2v219z" />
<glyph unicode="K" horiz-adv-x="1275" d="M164 0v1366h262v-1366h-262zM430 725l500 641h303l-510 -633l543 -733h-334z" />
<glyph unicode="L" horiz-adv-x="1054" d="M164 0v1366h268v-1143h592v-223h-860z" />
<glyph unicode="M" horiz-adv-x="1650" d="M164 0v1366h366l295 -1085l299 1085h363v-1366h-238v1065l-291 -1065h-270l-287 1065v-1065h-237z" />
<glyph unicode="N" horiz-adv-x="1411" d="M164 0v1366h280l553 -963v963h250v-1366h-264l-569 963v-963h-250z" />
<glyph unicode="O" horiz-adv-x="1378" d="M125 998.5q51 138.5 145 230.5q84 80 190.5 122t229.5 42q139 0 253 -50.5t195 -143.5t125 -224t44 -291q0 -176 -50.5 -314.5t-148.5 -232.5q-80 -78 -187.5 -121t-228.5 -43q-123 0 -231.5 42t-190.5 122q-196 189 -196 553q0 170 51 308.5zM346 690q0 -233 90 -362 t254 -129q162 0 253 128t91 357q0 227 -91 355t-253 128q-160 0 -252 -128t-92 -349z" />
<glyph unicode="P" horiz-adv-x="1157" d="M164 0v1366h319q76 0 132.5 -2t101.5 -7t82 -12.5t71 -19.5q119 -39 186.5 -144.5t67.5 -248.5q0 -147 -71.5 -253t-194.5 -140q-29 -8 -61.5 -13.5t-73.5 -8.5t-93 -5t-122 -2h-82v-510h-262zM426 733h84q57 0 94 1t62.5 3t44 7.5t37.5 11.5q51 18 79.5 65t28.5 113 q0 61 -24.5 107t-67.5 69q-18 8 -40 15.5t-49.5 10.5t-64.5 5t-88 2h-96v-410z" />
<glyph unicode="Q" horiz-adv-x="1419" d="M74 684q0 160 44 291t125 224t194.5 143.5t252.5 50.5t253 -50.5t195 -143.5t125 -223t44 -290q0 -104 -16.5 -189t-53.5 -175l283 -322h-303l-113 131q-174 -158 -414 -158q-139 0 -252.5 50.5t-194.5 143.5t-125 224t-44 293zM346 690q0 -233 90 -362t254 -129 q162 0 253 128t91 357q0 227 -91 355t-253 128q-160 0 -252 -128t-92 -349z" />
<glyph unicode="R" horiz-adv-x="1208" d="M164 0v1366h340q90 0 155.5 -3t113.5 -10t86 -20.5t73 -32.5q92 -49 143 -142t51 -212q0 -270 -241 -379l313 -567h-305l-279 522h-188v-522h-262zM426 745h94q49 0 83 1.5t58.5 3.5t44 7t37.5 11q53 20 84 67.5t31 112.5q0 109 -88 160q-20 12 -39.5 18.5t-48.5 10.5 t-71 5t-109 1h-76v-398z" />
<glyph unicode="S" horiz-adv-x="1157" d="M66 465h253q25 -264 281 -264q98 0 157.5 40t59.5 105q0 80 -94 131q-14 8 -24.5 13.5t-33 14.5t-63.5 26.5t-115 48.5q-117 49 -180 85.5t-100 77.5q-96 100 -96 248q0 88 34.5 162t96 127t147.5 83t189 30q129 0 231 -47.5t164 -135.5q35 -49 52 -104t22 -141h-252 q-8 96 -66.5 148t-157.5 52q-86 0 -142 -42t-56 -105q0 -66 69 -105q14 -8 25.5 -13t32 -14t59.5 -24.5t109 -42.5q88 -37 141 -59.5t87 -40t53.5 -33.5t41.5 -39q94 -94 94 -252q0 -197 -131 -309.5t-356 -112.5q-254 0 -388 125t-144 367z" />
<glyph unicode="T" horiz-adv-x="1030" d="M25 1143v223h983v-223h-361v-1143h-262v1143h-360z" />
<glyph unicode="U" horiz-adv-x="1382" d="M150 578v788h262v-784q0 -49 1 -84t3 -60.5t7 -45t11 -38.5q27 -74 92.5 -113.5t163.5 -39.5q217 0 264 180q8 33 11.5 74t3.5 127v784h262v-788q0 -74 -2 -126.5t-8.5 -91t-16.5 -69.5t-26 -64q-59 -123 -186.5 -188.5t-301.5 -65.5t-301 65.5t-186 188.5 q-16 33 -26.5 64t-16.5 69.5t-8 91t-2 126.5z" />
<glyph unicode="V" horiz-adv-x="1247" d="M14 1366h281l328 -1067l329 1067h275l-471 -1366h-275z" />
<glyph unicode="W" horiz-adv-x="1777" d="M18 1366h246l260 -1067l254 1067h226l253 -1067l265 1067h239l-352 -1366h-297l-225 889l-221 -889h-297z" />
<glyph unicode="X" horiz-adv-x="1196" d="M20 0l426 711l-391 655h299l246 -424l252 424h299l-399 -655l424 -711h-299l-277 473l-281 -473h-299z" />
<glyph unicode="Y" horiz-adv-x="1150" d="M0 1366h293l287 -545l282 545h289l-444 -827v-539h-263v539z" />
<glyph unicode="Z" horiz-adv-x="1026" d="M47 0v205l625 942h-563v219h878v-184l-629 -959h609v-223h-920z" />
<glyph unicode="[" horiz-adv-x="626" d="M154 -397v1763h409v-199h-194v-1364h194v-200h-409z" />
<glyph unicode="\" horiz-adv-x="1140" d="M43 1366h188l867 -1763h-191z" />
<glyph unicode="]" horiz-adv-x="626" d="M63 -199h195v1364h-195v201h410v-1763h-410v198z" />
<glyph unicode="^" d="M14 692l332 680h332l332 -680h-265l-233 479l-233 -479h-265z" />
<glyph unicode="_" d="M0 -98h1024v-228h-1024v228z" />
<glyph unicode="`" d="M127 1432h311l260 -334h-190z" />
<glyph unicode="a" horiz-adv-x="1048" d="M82 256q0 102 56.5 176t164.5 115q33 12 57.5 20t60.5 16.5t93 18.5t156 29v16q0 80 -34 114t-114 34q-145 0 -166 -113h-239q10 80 34.5 130t71.5 89q55 45 137 68.5t181 23.5q127 0 213 -37.5t120 -107.5q23 -43 31 -95.5t8 -144.5v-391q0 -88 7.5 -133t25.5 -84h-229 q-8 29 -10 51.5t-2 59.5q-80 -131 -269 -131q-168 0 -261 72.5t-93 203.5zM340 289q0 -51 41 -84t106 -33q57 0 100.5 24.5t63.5 65.5q10 23 14.5 55.5t4.5 90.5v55q-123 -16 -180.5 -29.5t-90.5 -36.5q-59 -43 -59 -108z" />
<glyph unicode="b" horiz-adv-x="1124" d="M133 0q2 25 3 44t2 46t1 66v100v1118h252v-524q59 78 120.5 110.5t145.5 32.5q86 0 159 -37.5t125 -105.5t82 -160t30 -203t-32 -204t-88 -160.5t-134 -105t-170 -37.5q-182 0 -260 151q-4 -49 -7.5 -74.5t-11.5 -56.5h-217zM391 483q0 -135 53.5 -214t145.5 -79 q94 0 149.5 81t55.5 221q0 135 -52.5 212.5t-144.5 77.5q-98 0 -152.5 -78.5t-54.5 -220.5z" />
<glyph unicode="c" horiz-adv-x="1017" d="M68 485q0 117 33.5 211.5t95 162t148.5 104t194 36.5q174 0 277.5 -89t125.5 -259h-248q-23 145 -155 146q-98 0 -155.5 -85t-57.5 -227q0 -147 55 -228t154 -81q150 0 170 170h243q-4 -84 -36.5 -152.5t-87 -117.5t-128 -76t-161.5 -27q-104 0 -190.5 37t-148 104.5 t-95 162t-33.5 208.5z" />
<glyph unicode="d" horiz-adv-x="1122" d="M68 477q0 113 30.5 208t85 164t129 106.5t164.5 37.5q86 0 142.5 -28.5t109.5 -98.5v508h252v-1067q0 -123 4 -189.5t14 -117.5h-235q-4 31 -6 49.5t-2 36.5v20.5t2 28.5q-47 -84 -112.5 -119.5t-164.5 -35.5q-92 0 -167.5 35.5t-131 101t-85 158t-29.5 202.5zM324 477 q0 -135 53 -211t147 -76q98 0 153.5 80t55.5 217q0 139 -52 217t-146 78q-100 0 -155.5 -79.5t-55.5 -225.5z" />
<glyph unicode="e" horiz-adv-x="1054" d="M68 475q0 119 33.5 215t96 165t149.5 106.5t194 37.5q102 0 185 -36.5t140.5 -104t88 -165t30.5 -218.5v-49h-666q6 -121 68 -185.5t168 -64.5q139 0 188 109l224 -11q-33 -141 -144.5 -221t-273.5 -80q-111 0 -200 35t-151.5 100.5t-96 158.5t-33.5 208zM326 610h405 q-31 195 -192 195q-164 0 -213 -195z" />
<glyph unicode="f" horiz-adv-x="671" d="M33 776v197h129v61q0 98 12 156.5t41 101.5q74 115 248 115q106 0 223 -45v-203q-59 16 -95 23.5t-71 7.5q-33 0 -53.5 -8t-32.5 -30t-16 -59.5t-4 -95.5v-24h231v-197h-231v-776h-252v776h-129z" />
<glyph unicode="g" horiz-adv-x="1085" d="M41 -125q0 84 46 138.5t151 88.5q-59 23 -84 49.5t-25 67.5q0 49 39 84t133 72q-86 43 -126 109.5t-40 166.5q0 158 109.5 250t296.5 92q47 0 87 -5t99 -21l322 6v-180h-199q51 -78 51 -175q0 -86 -39 -148t-112 -95q-25 -10 -43.5 -16.5t-46 -11.5t-71.5 -9t-124 -12 q-43 -4 -69.5 -19.5t-26.5 -38.5q0 -14 5 -22t26.5 -14.5t63.5 -11.5t118 -13q125 -10 190.5 -24.5t110.5 -39.5q59 -31 93 -91t34 -138q0 -156 -127 -241t-357 -85q-225 0 -355 77t-130 210zM256 -104q0 -59 71.5 -92t200.5 -33q117 0 178.5 30.5t61.5 89.5t-71.5 93 t-200.5 34q-115 0 -177.5 -31.5t-62.5 -90.5zM352 653q0 -66 45 -104.5t123 -38.5t124 39t46 104q0 68 -46 109t-120 41q-78 0 -125 -40t-47 -110z" />
<glyph unicode="h" horiz-adv-x="1136" d="M141 0v1374h252v-508q115 127 281 127q90 0 164.5 -36.5t115.5 -98.5q14 -25 23.5 -49.5t15.5 -57t8.5 -78.5t2.5 -112v-561h-252v506q0 72 -5.5 111.5t-19.5 68.5q-41 86 -141 86q-53 0 -97.5 -27.5t-68.5 -74.5q-14 -29 -20.5 -69t-6.5 -103v-498h-252z" />
<glyph unicode="i" horiz-adv-x="534" d="M121 1243q0 68 41.5 109t109.5 41q63 0 102.5 -40t39.5 -106q0 -68 -40 -107.5t-106 -39.5q-68 0 -107.5 39t-39.5 104zM141 0v973h252v-973h-252z" />
<glyph unicode="j" horiz-adv-x="557" d="M-82 -160h31q90 0 138 21.5t67 68.5q6 14 9 24.5t5 30t2 54.5v98v836h252v-834q0 -78 -2 -131t-9.5 -91t-19.5 -67.5t-33 -60.5q-55 -88 -146 -127t-241 -39h-21.5t-31.5 2v215zM150 1243q0 68 40.5 109t110.5 41q66 0 103.5 -40t37.5 -106q0 -68 -40 -107.5t-105 -39.5 q-68 0 -107.5 39t-39.5 104z" />
<glyph unicode="k" horiz-adv-x="1097" d="M141 0v1374h252v-1374h-252zM397 518l357 455h303l-365 -451l398 -522h-338z" />
<glyph unicode="l" horiz-adv-x="534" d="M141 0v1374h252v-1374h-252z" />
<glyph unicode="m" horiz-adv-x="1710" d="M115 973h243q20 -49 21 -111v-18q57 78 128 113.5t169 35.5q100 0 167.5 -37.5t112.5 -119.5q66 84 139.5 120.5t176.5 36.5q100 0 169.5 -36.5t102.5 -108.5q12 -25 18.5 -44.5t9.5 -48t4 -72.5t1 -116v-567h-252v561q0 63 -5 96t-20 56q-37 59 -133 59 q-182 0 -182 -221v-551h-252v541q0 74 -4 108.5t-16 57.5q-36 65 -132 65h-3q-131 0 -170 -106q-10 -23 -12.5 -47.5t-2.5 -77.5v-541h-252v743q0 51 -1 85t-4 58.5t-8 44t-13 42.5z" />
<glyph unicode="n" horiz-adv-x="1122" d="M111 973h243q20 -43 21 -125q109 145 289 145q92 0 165.5 -37.5t112.5 -103.5q14 -25 22.5 -48.5t13.5 -55t7 -76.5t2 -111v-561h-252v506q0 74 -5 115t-17 69q-37 82 -135 82q-53 0 -95.5 -26.5t-64.5 -73.5q-14 -29 -19.5 -66t-5.5 -108v-498h-252v625q0 88 -1 140 t-4 87t-9 60.5t-16 60.5z" />
<glyph unicode="o" horiz-adv-x="1097" d="M68 494q0 109 35.5 201.5t100 160.5t153 105.5t192.5 37.5t192 -37.5t151.5 -106.5t99.5 -163t36 -207q0 -111 -36 -205t-99.5 -162.5t-151.5 -106.5t-192 -38q-106 0 -195.5 38t-153 106.5t-98 165t-34.5 211.5zM326 489q0 -141 60 -227t163 -86q98 0 159.5 86t61.5 225 q0 137 -61.5 223.5t-159.5 86.5t-160.5 -86t-62.5 -222z" />
<glyph unicode="p" horiz-adv-x="1122" d="M123 973h235q14 -37 17 -115q53 72 115.5 103.5t152.5 31.5q92 0 168 -35.5t130 -102.5t84 -159t30 -202q0 -113 -30 -207t-84 -163t-128 -106.5t-162 -37.5q-82 0 -141 29.5t-117 94.5v-507h-252v1067q0 125 -4 191.5t-14 117.5zM389 481q0 -135 56.5 -213t152.5 -78 q94 0 147.5 79t53.5 220q0 137 -53.5 215t-147.5 78q-98 0 -153.5 -79.5t-55.5 -221.5z" />
<glyph unicode="q" horiz-adv-x="1122" d="M68 481q0 115 30.5 209t86 162t132 104.5t168.5 36.5q178 0 263 -135q2 35 6 66.5t10 48.5h235q-6 -27 -9 -54.5t-5 -63.5t-3 -83t-1 -108v-1067h-252v505q-53 -68 -107.5 -95t-134.5 -27q-92 0 -169.5 36.5t-133 103t-86 159t-30.5 202.5zM324 487q0 -137 55 -217 t153 -80q96 0 148.5 77t52.5 218q0 135 -55.5 216t-151.5 81q-94 0 -148 -78.5t-54 -216.5z" />
<glyph unicode="r" horiz-adv-x="772" d="M127 973h240q16 -70 16 -152v-21.5t-2 -29.5q59 119 124.5 171t156.5 52q20 0 32.5 -2t42.5 -10v-256q-72 47 -151 47q-100 0 -147.5 -78t-47.5 -241v-453h-252v674v76t-2 96q0 41 -2 63.5t-8 63.5z" />
<glyph unicode="s" horiz-adv-x="993" d="M78 326h237q6 -86 49.5 -124t135.5 -38q72 0 112.5 28.5t40.5 75.5q0 29 -14 45.5t-51 32.5q-12 6 -20.5 9t-28 9.5t-55 17.5t-101.5 30q-80 25 -126 47t-75 51q-67 67 -67 173q0 73 27.5 131t78.5 100t123 64.5t160 22.5q180 0 282.5 -85t112.5 -238h-244 q-18 135 -155 135q-59 0 -97 -28.5t-38 -71.5q0 -47 41 -70q10 -6 21 -12t31.5 -12.5t54.5 -16.5t89 -27q106 -33 160.5 -59.5t85.5 -60.5q57 -68 57 -168q0 -147 -103.5 -230.5t-291.5 -83.5q-432 0 -432 353z" />
<glyph unicode="t" horiz-adv-x="731" d="M47 776v197h160l6 280h244l-4 -280h198v-197h-202l-7 -375q-2 -37 -2 -45v-22q0 -78 21.5 -105.5t79.5 -27.5q66 0 145 32v-208q-59 -23 -111.5 -34t-111.5 -11q-168 0 -240 118q-23 37 -32 80t-9 123l2 96l15 379h-152z" />
<glyph unicode="u" horiz-adv-x="1136" d="M133 406v567h252v-553q0 -115 35 -162q41 -57 131 -57q193 0 192 252v520h252v-672v-125t3 -73.5t7.5 -49t14.5 -53.5h-238q-8 16 -13 47t-7 66q-57 -72 -119.5 -102.5t-153.5 -30.5q-98 0 -177 38.5t-124 110.5q-55 82 -55 277z" />
<glyph unicode="v" horiz-adv-x="1026" d="M23 973h266l225 -699l225 699h262l-352 -979h-280z" />
<glyph unicode="w" horiz-adv-x="1533" d="M27 973h254l180 -686l203 686h202l201 -686l184 686h252l-291 -979h-270l-182 584l-178 -584h-271z" />
<glyph unicode="x" horiz-adv-x="1026" d="M2 0l358 518l-309 455h301l160 -273l166 273h299l-309 -455l356 -518h-307l-205 322l-205 -322h-305z" />
<glyph unicode="y" horiz-adv-x="1021" d="M33 973h266l217 -742l225 742h263l-330 -946q-25 -68 -38 -106t-24.5 -62.5t-21.5 -43t-27 -44.5q-59 -98 -154.5 -140.5t-256.5 -42.5h-39t-56 2v220h38q56 0 97 4q54 6 88.5 22.5t57 45t39.5 73.5z" />
<glyph unicode="z" horiz-adv-x="868" d="M47 0v195l461 569h-410v209h713v-191l-467 -573h475v-209h-772z" />
<glyph unicode="{" horiz-adv-x="626" d="M92 403v160q63 14 88 53t25 125v318q0 82 10 130t33 85q39 57 102.5 80.5t173.5 23.5q27 0 47.5 -1t49.5 -3v-194l-41 2q-68 0 -99.5 -10.5t-44.5 -34.5q-8 -16 -10 -38t-2 -89v-256q0 -57 -5 -97.5t-19.5 -71t-39 -54t-61.5 -48.5q37 -25 61.5 -48t39 -53t19.5 -70 t5 -97v-258q0 -35 1 -57.5t2 -36t4 -22.5t9 -17q12 -20 45 -28.5t95 -8.5h41v-195q-29 -2 -50.5 -2h-46.5q-121 0 -187.5 30t-100.5 95q-16 35 -23.5 78t-7.5 115v317q0 86 -25.5 126t-87.5 52z" />
<glyph unicode="|" d="M385 -342v1708h252v-1708h-252z" />
<glyph unicode="}" horiz-adv-x="626" d="M6 -213h41q68 0 99.5 10t43.5 35q4 8 7.5 16.5t4.5 20.5t1 32.5v55.5v258q0 55 5 95t19.5 71t39 54.5t61.5 47.5q-37 25 -61.5 48.5t-39 54t-19.5 70.5t-5 98v256q0 37 -1 59.5t-2 35.5t-4 21.5t-10 18.5q-12 20 -43.5 28.5t-95.5 8.5l-41 -2v194q29 2 49.5 3t46.5 1 q121 0 187.5 -29.5t101.5 -97.5q16 -35 23.5 -78t7.5 -114v-318q0 -86 24.5 -124.5t88.5 -53.5v-160q-61 -12 -87 -52t-26 -126v-317q0 -82 -10.5 -129t-32.5 -84q-39 -57 -102.5 -81t-174.5 -24h-46t-50 2v195z" />
<glyph unicode="~" horiz-adv-x="1366" d="M184 494q4 4 5 11t6 11q2 6 6 10q18 43 33.5 73t30 51.5t29.5 36.5t36 32q66 53 162 53q37 0 86 -12t127 -43q45 -16 72.5 -25.5t46 -14.5t31.5 -7t30 -2q51 0 81.5 22.5t69.5 85.5l144 -84q-43 -92 -74 -135t-74 -74q-82 -59 -176 -59q-29 0 -74 12.5t-131 42.5 q-47 16 -74.5 26.5t-46 15.5t-30 6t-25.5 1q-49 0 -81 -26.5t-70 -100.5z" />
<glyph unicode="&#xa1;" horiz-adv-x="516" />
<glyph unicode="&#xa2;" horiz-adv-x="1167" />
<glyph unicode="&#xa3;" horiz-adv-x="1167" />
<glyph unicode="&#xa4;" horiz-adv-x="1366" />
<glyph unicode="&#xa5;" horiz-adv-x="1167" />
<glyph unicode="&#xa6;" />
<glyph unicode="&#xa7;" />
<glyph unicode="&#xa8;" />
<glyph unicode="&#xa9;" horiz-adv-x="1536" />
<glyph unicode="&#xaa;" />
<glyph unicode="&#xab;" horiz-adv-x="1001" />
<glyph unicode="&#xac;" />
<glyph unicode="&#xad;" horiz-adv-x="534" />
<glyph unicode="&#xae;" horiz-adv-x="1536" />
<glyph unicode="&#xaf;" />
<glyph unicode="&#xb0;" />
<glyph unicode="&#xb1;" horiz-adv-x="1167" />
<glyph unicode="&#xb2;" horiz-adv-x="757" />
<glyph unicode="&#xb3;" horiz-adv-x="757" />
<glyph unicode="&#xb4;" d="M348 1098l260 334h312l-381 -334h-191z" />
<glyph unicode="&#xb5;" />
<glyph unicode="&#xb6;" horiz-adv-x="1345" />
<glyph unicode="&#xb7;" horiz-adv-x="514" />
<glyph unicode="&#xb8;" />
<glyph unicode="&#xb9;" horiz-adv-x="757" />
<glyph unicode="&#xba;" />
<glyph unicode="&#xbb;" horiz-adv-x="1001" />
<glyph unicode="&#xbc;" horiz-adv-x="1794" />
<glyph unicode="&#xbd;" horiz-adv-x="1794" />
<glyph unicode="&#xbe;" horiz-adv-x="1794" />
<glyph unicode="&#xbf;" horiz-adv-x="854" />
<glyph unicode="&#xc0;" horiz-adv-x="1232" />
<glyph unicode="&#xc1;" horiz-adv-x="1232" />
<glyph unicode="&#xc2;" horiz-adv-x="1232" />
<glyph unicode="&#xc3;" horiz-adv-x="1232" />
<glyph unicode="&#xc4;" horiz-adv-x="1232" />
<glyph unicode="&#xc5;" horiz-adv-x="1232" />
<glyph unicode="&#xc6;" horiz-adv-x="1875" />
<glyph unicode="&#xc7;" horiz-adv-x="1226" />
<glyph unicode="&#xc8;" horiz-adv-x="1099" />
<glyph unicode="&#xc9;" horiz-adv-x="1099" />
<glyph unicode="&#xca;" horiz-adv-x="1099" />
<glyph unicode="&#xcb;" horiz-adv-x="1099" />
<glyph unicode="&#xcc;" horiz-adv-x="589" />
<glyph unicode="&#xcd;" horiz-adv-x="589" />
<glyph unicode="&#xce;" horiz-adv-x="589" />
<glyph unicode="&#xcf;" horiz-adv-x="589" />
<glyph unicode="&#xd0;" horiz-adv-x="1323" />
<glyph unicode="&#xd1;" horiz-adv-x="1411" />
<glyph unicode="&#xd2;" horiz-adv-x="1378" />
<glyph unicode="&#xd3;" horiz-adv-x="1378" />
<glyph unicode="&#xd4;" horiz-adv-x="1378" />
<glyph unicode="&#xd5;" horiz-adv-x="1378" />
<glyph unicode="&#xd6;" horiz-adv-x="1378" />
<glyph unicode="&#xd7;" horiz-adv-x="1167" />
<glyph unicode="&#xd8;" horiz-adv-x="1378" />
<glyph unicode="&#xd9;" horiz-adv-x="1382" />
<glyph unicode="&#xda;" horiz-adv-x="1382" />
<glyph unicode="&#xdb;" horiz-adv-x="1382" />
<glyph unicode="&#xdc;" horiz-adv-x="1382" />
<glyph unicode="&#xdd;" horiz-adv-x="1150" />
<glyph unicode="&#xde;" horiz-adv-x="1157" />
<glyph unicode="&#xdf;" horiz-adv-x="1114" />
<glyph unicode="&#xe0;" horiz-adv-x="1048" />
<glyph unicode="&#xe1;" horiz-adv-x="1048" />
<glyph unicode="&#xe2;" horiz-adv-x="1048" />
<glyph unicode="&#xe3;" horiz-adv-x="1048" />
<glyph unicode="&#xe4;" horiz-adv-x="1048" />
<glyph unicode="&#xe5;" horiz-adv-x="1048" />
<glyph unicode="&#xe6;" horiz-adv-x="1673" />
<glyph unicode="&#xe7;" horiz-adv-x="1017" />
<glyph unicode="&#xe8;" horiz-adv-x="1054" />
<glyph unicode="&#xe9;" horiz-adv-x="1054" />
<glyph unicode="&#xea;" horiz-adv-x="1054" />
<glyph unicode="&#xeb;" horiz-adv-x="1054" />
<glyph unicode="&#xec;" horiz-adv-x="534" />
<glyph unicode="&#xed;" horiz-adv-x="534" />
<glyph unicode="&#xee;" horiz-adv-x="534" />
<glyph unicode="&#xef;" horiz-adv-x="534" />
<glyph unicode="&#xf0;" horiz-adv-x="1097" />
<glyph unicode="&#xf1;" horiz-adv-x="1122" />
<glyph unicode="&#xf2;" horiz-adv-x="1097" />
<glyph unicode="&#xf3;" horiz-adv-x="1097" />
<glyph unicode="&#xf4;" horiz-adv-x="1097" />
<glyph unicode="&#xf5;" horiz-adv-x="1097" />
<glyph unicode="&#xf6;" horiz-adv-x="1097" />
<glyph unicode="&#xf7;" horiz-adv-x="1167" />
<glyph unicode="&#xf8;" horiz-adv-x="1097" />
<glyph unicode="&#xf9;" horiz-adv-x="1136" />
<glyph unicode="&#xfa;" horiz-adv-x="1136" />
<glyph unicode="&#xfb;" horiz-adv-x="1136" />
<glyph unicode="&#xfc;" horiz-adv-x="1136" />
<glyph unicode="&#xfd;" horiz-adv-x="1021" />
<glyph unicode="&#xfe;" horiz-adv-x="1122" />
<glyph unicode="&#xff;" horiz-adv-x="1021" />
<glyph unicode="&#x152;" horiz-adv-x="1972" />
<glyph unicode="&#x153;" horiz-adv-x="1757" />
<glyph unicode="&#x178;" horiz-adv-x="1150" />
<glyph unicode="&#x2c6;" />
<glyph unicode="&#x2dc;" />
<glyph unicode="&#x2000;" horiz-adv-x="772" />
<glyph unicode="&#x2001;" horiz-adv-x="1544" />
<glyph unicode="&#x2002;" horiz-adv-x="772" />
<glyph unicode="&#x2003;" horiz-adv-x="1544" />
<glyph unicode="&#x2004;" horiz-adv-x="514" />
<glyph unicode="&#x2005;" horiz-adv-x="386" />
<glyph unicode="&#x2006;" horiz-adv-x="257" />
<glyph unicode="&#x2007;" horiz-adv-x="257" />
<glyph unicode="&#x2008;" horiz-adv-x="193" />
<glyph unicode="&#x2009;" horiz-adv-x="308" />
<glyph unicode="&#x200a;" horiz-adv-x="85" />
<glyph unicode="&#x2010;" horiz-adv-x="534" d="M0 426v182h535v-182h-535z" />
<glyph unicode="&#x2011;" horiz-adv-x="534" d="M0 426v182h535v-182h-535z" />
<glyph unicode="&#x2012;" horiz-adv-x="534" d="M0 426v182h535v-182h-535z" />
<glyph unicode="&#x2013;" d="M90 426v182h842v-182h-842z" />
<glyph unicode="&#x2014;" horiz-adv-x="1296" d="M0 426v182h1296v-182h-1296z" />
<glyph unicode="&#x2018;" horiz-adv-x="423" d="M78 1079q0 72 38 154t103 158h117q-41 -45 -70.5 -114t-29.5 -120q133 -18 133 -125q0 -59 -41 -98t-101 -39q-68 0 -108.5 50t-40.5 134z" />
<glyph unicode="&#x2019;" horiz-adv-x="423" d="M55 1255q0 59 41 98.5t101 39.5q68 0 108.5 -50.5t40.5 -134.5q0 -141 -141 -313h-115q43 53 70.5 117.5t27.5 117.5q-133 18 -133 125z" />
<glyph unicode="&#x201a;" horiz-adv-x="423" />
<glyph unicode="&#x201c;" horiz-adv-x="776" />
<glyph unicode="&#x201d;" horiz-adv-x="776" />
<glyph unicode="&#x201e;" horiz-adv-x="776" />
<glyph unicode="&#x2022;" horiz-adv-x="1366" d="M401 692q0 59 22.5 111.5t61.5 90.5t91.5 60.5t113.5 22.5q57 0 107.5 -22.5t88.5 -61.5t60.5 -90t22.5 -109q0 -59 -22.5 -111.5t-60.5 -90t-90.5 -60t-109.5 -22.5q-59 0 -110.5 22.5t-90.5 60t-61.5 89t-22.5 110.5z" />
<glyph unicode="&#x2026;" horiz-adv-x="1462" d="M100 141q0 66 46 112t112 46t111 -46t45 -112t-46 -110.5t-112 -44.5t-111 45t-45 110zM573 141q0 66 46 112t112 46t111 -46t45 -112t-46 -110.5t-112 -44.5t-111 45t-45 110zM1049 141q0 66 45.5 112t111.5 46t111 -46t45 -112t-46 -110.5t-112 -44.5t-110.5 45 t-44.5 110z" />
<glyph unicode="&#x202f;" horiz-adv-x="308" />
<glyph unicode="&#x2039;" horiz-adv-x="622" />
<glyph unicode="&#x203a;" horiz-adv-x="622" />
<glyph unicode="&#x205f;" horiz-adv-x="386" />
<glyph unicode="&#x20ac;" horiz-adv-x="1167" />
<glyph unicode="&#x2122;" horiz-adv-x="1695" />
<glyph unicode="&#x25fc;" horiz-adv-x="972" d="M0 0v973h973v-973h-973z" />
</font>
</defs>
</svg>
